<svg xmlns="http://www.w3.org/2000/svg" xmlns:xlink="http://www.w3.org/1999/xlink" width="100%" height="100%" viewBox="0 0 1024 1024" preserveAspectRatio="none">
  <defs>
    <style>
      /* DEFAULT: New Tab View (The Redirect) */
      .redirect-layer { display: block; }
      .tile-layer { display: none; }

      /* TILE MODE: Inside the profile tile */
      @media (max-width: 600px) {
        .redirect-layer { display: none; }
        .tile-layer { display: block; }
      }
      
      .warning-text { font-family: Arial, sans-serif; font-weight: 900; font-size: 80px; fill: #ff4444; }
      .info-text { font-family: Arial, sans-serif; font-weight: bold; font-size: 35px; fill: #ffffff; }
    </style>
  </defs>

  <g class="tile-layer">
    <rect width="100%" height="100%" fill="#1a1a1a" />
    <text x="50%" y="40%" text-anchor="middle" class="warning-text">POC: Get Free ..... </text>
    <rect x="112" y="650" width="800" height="100" rx="20" fill="#333" stroke="#fff" stroke-width="4"/>
    <text x="50%" y="715" text-anchor="middle" class="info-text">Right-Click &gt; Open Image in New Tab</text>
  </g>

  <g class="redirect-layer">
    <a href="https://google.com" target="_blank">
      <rect width="100%" height="100%" fill="#ffffff" />
      <text x="50%" y="40%" text-anchor="middle" font-family="Arial" font-size="40" fill="#333" font-weight="bold">PoC: Redirection Scenario</text>
      <text x="50%" y="48%" text-anchor="middle" font-family="Arial" font-size="20" fill="#666">PoC: Click the button below.. and If button not working then try scanning QR.</text>
      <rect x="212" y="550" width="600" height="80" rx="10" fill="#5284ff" />
      <button x="512" y="600" text-anchor="middle" font-family="Arial" font-size="30" fill="white" font-weight="bold">"https://attacker-link.com"</button>
    </a>

    
    <a xlink:href="https://google.com" target="_blank">
      <g transform="translate(288,572)">
        <g fill="#000">
          <rect x="124" y="88" width="8" height="8" />
          <rect x="132" y="88" width="8" height="8" />
          <rect x="140" y="88" width="8" height="8" />
          <rect x="148" y="88" width="8" height="8" />
          <rect x="156" y="88" width="8" height="8" />
          <rect x="164" y="88" width="8" height="8" />
          <rect x="172" y="88" width="8" height="8" />
          <rect x="188" y="88" width="8" height="8" />
          <rect x="196" y="88" width="8" height="8" />
          <rect x="212" y="88" width="8" height="8" />
          <rect x="220" y="88" width="8" height="8" />
          <rect x="236" y="88" width="8" height="8" />
          <rect x="244" y="88" width="8" height="8" />
          <rect x="252" y="88" width="8" height="8" />
          <rect x="268" y="88" width="8" height="8" />
          <rect x="276" y="88" width="8" height="8" />
          <rect x="284" y="88" width="8" height="8" />
          <rect x="292" y="88" width="8" height="8" />
          <rect x="300" y="88" width="8" height="8" />
          <rect x="308" y="88" width="8" height="8" />
          <rect x="316" y="88" width="8" height="8" />
          <rect x="124" y="96" width="8" height="8" />
          <rect x="172" y="96" width="8" height="8" />
          <rect x="204" y="96" width="8" height="8" />
          <rect x="212" y="96" width="8" height="8" />
          <rect x="228" y="96" width="8" height="8" />
          <rect x="252" y="96" width="8" height="8" />
          <rect x="268" y="96" width="8" height="8" />
          <rect x="316" y="96" width="8" height="8" />
          <rect x="124" y="104" width="8" height="8" />
          <rect x="140" y="104" width="8" height="8" />
          <rect x="148" y="104" width="8" height="8" />
          <rect x="156" y="104" width="8" height="8" />
          <rect x="172" y="104" width="8" height="8" />
          <rect x="196" y="104" width="8" height="8" />
          <rect x="204" y="104" width="8" height="8" />
          <rect x="220" y="104" width="8" height="8" />
          <rect x="236" y="104" width="8" height="8" />
          <rect x="268" y="104" width="8" height="8" />
          <rect x="284" y="104" width="8" height="8" />
          <rect x="292" y="104" width="8" height="8" />
          <rect x="300" y="104" width="8" height="8" />
          <rect x="316" y="104" width="8" height="8" />
          <rect x="124" y="112" width="8" height="8" />
          <rect x="140" y="112" width="8" height="8" />
          <rect x="148" y="112" width="8" height="8" />
          <rect x="156" y="112" width="8" height="8" />
          <rect x="172" y="112" width="8" height="8" />
          <rect x="188" y="112" width="8" height="8" />
          <rect x="252" y="112" width="8" height="8" />
          <rect x="268" y="112" width="8" height="8" />
          <rect x="284" y="112" width="8" height="8" />
          <rect x="292" y="112" width="8" height="8" />
          <rect x="300" y="112" width="8" height="8" />
          <rect x="316" y="112" width="8" height="8" />
          <rect x="124" y="120" width="8" height="8" />
          <rect x="140" y="120" width="8" height="8" />
          <rect x="148" y="120" width="8" height="8" />
          <rect x="156" y="120" width="8" height="8" />
          <rect x="172" y="120" width="8" height="8" />
          <rect x="188" y="120" width="8" height="8" />
          <rect x="196" y="120" width="8" height="8" />
          <rect x="212" y="120" width="8" height="8" />
          <rect x="220" y="120" width="8" height="8" />
          <rect x="236" y="120" width="8" height="8" />
          <rect x="244" y="120" width="8" height="8" />
          <rect x="252" y="120" width="8" height="8" />
          <rect x="268" y="120" width="8" height="8" />
          <rect x="284" y="120" width="8" height="8" />
          <rect x="292" y="120" width="8" height="8" />
          <rect x="300" y="120" width="8" height="8" />
          <rect x="316" y="120" width="8" height="8" />
          <rect x="124" y="128" width="8" height="8" />
          <rect x="172" y="128" width="8" height="8" />
          <rect x="188" y="128" width="8" height="8" />
          <rect x="204" y="128" width="8" height="8" />
          <rect x="212" y="128" width="8" height="8" />
          <rect x="252" y="128" width="8" height="8" />
          <rect x="268" y="128" width="8" height="8" />
          <rect x="316" y="128" width="8" height="8" />
          <rect x="124" y="136" width="8" height="8" />
          <rect x="132" y="136" width="8" height="8" />
          <rect x="140" y="136" width="8" height="8" />
          <rect x="148" y="136" width="8" height="8" />
          <rect x="156" y="136" width="8" height="8" />
          <rect x="164" y="136" width="8" height="8" />
          <rect x="172" y="136" width="8" height="8" />
          <rect x="188" y="136" width="8" height="8" />
          <rect x="204" y="136" width="8" height="8" />
          <rect x="220" y="136" width="8" height="8" />
          <rect x="236" y="136" width="8" height="8" />
          <rect x="252" y="136" width="8" height="8" />
          <rect x="268" y="136" width="8" height="8" />
          <rect x="276" y="136" width="8" height="8" />
          <rect x="284" y="136" width="8" height="8" />
          <rect x="292" y="136" width="8" height="8" />
          <rect x="300" y="136" width="8" height="8" />
          <rect x="308" y="136" width="8" height="8" />
          <rect x="316" y="136" width="8" height="8" />
          <rect x="188" y="144" width="8" height="8" />
          <rect x="196" y="144" width="8" height="8" />
          <rect x="220" y="144" width="8" height="8" />
          <rect x="228" y="144" width="8" height="8" />
          <rect x="252" y="144" width="8" height="8" />
          <rect x="124" y="152" width="8" height="8" />
          <rect x="156" y="152" width="8" height="8" />
          <rect x="172" y="152" width="8" height="8" />
          <rect x="180" y="152" width="8" height="8" />
          <rect x="188" y="152" width="8" height="8" />
          <rect x="196" y="152" width="8" height="8" />
          <rect x="228" y="152" width="8" height="8" />
          <rect x="260" y="152" width="8" height="8" />
          <rect x="268" y="152" width="8" height="8" />
          <rect x="276" y="152" width="8" height="8" />
          <rect x="284" y="152" width="8" height="8" />
          <rect x="292" y="152" width="8" height="8" />
          <rect x="316" y="152" width="8" height="8" />
          <rect x="148" y="160" width="8" height="8" />
          <rect x="188" y="160" width="8" height="8" />
          <rect x="204" y="160" width="8" height="8" />
          <rect x="228" y="160" width="8" height="8" />
          <rect x="236" y="160" width="8" height="8" />
          <rect x="244" y="160" width="8" height="8" />
          <rect x="252" y="160" width="8" height="8" />
          <rect x="284" y="160" width="8" height="8" />
          <rect x="292" y="160" width="8" height="8" />
          <rect x="308" y="160" width="8" height="8" />
          <rect x="124" y="168" width="8" height="8" />
          <rect x="132" y="168" width="8" height="8" />
          <rect x="140" y="168" width="8" height="8" />
          <rect x="148" y="168" width="8" height="8" />
          <rect x="156" y="168" width="8" height="8" />
          <rect x="164" y="168" width="8" height="8" />
          <rect x="172" y="168" width="8" height="8" />
          <rect x="188" y="168" width="8" height="8" />
          <rect x="196" y="168" width="8" height="8" />
          <rect x="212" y="168" width="8" height="8" />
          <rect x="220" y="168" width="8" height="8" />
          <rect x="244" y="168" width="8" height="8" />
          <rect x="252" y="168" width="8" height="8" />
          <rect x="268" y="168" width="8" height="8" />
          <rect x="276" y="168" width="8" height="8" />
          <rect x="284" y="168" width="8" height="8" />
          <rect x="292" y="168" width="8" height="8" />
          <rect x="300" y="168" width="8" height="8" />
          <rect x="124" y="176" width="8" height="8" />
          <rect x="140" y="176" width="8" height="8" />
          <rect x="188" y="176" width="8" height="8" />
          <rect x="196" y="176" width="8" height="8" />
          <rect x="236" y="176" width="8" height="8" />
          <rect x="268" y="176" width="8" height="8" />
          <rect x="276" y="176" width="8" height="8" />
          <rect x="300" y="176" width="8" height="8" />
          <rect x="308" y="176" width="8" height="8" />
          <rect x="124" y="184" width="8" height="8" />
          <rect x="140" y="184" width="8" height="8" />
          <rect x="156" y="184" width="8" height="8" />
          <rect x="164" y="184" width="8" height="8" />
          <rect x="172" y="184" width="8" height="8" />
          <rect x="180" y="184" width="8" height="8" />
          <rect x="196" y="184" width="8" height="8" />
          <rect x="204" y="184" width="8" height="8" />
          <rect x="228" y="184" width="8" height="8" />
          <rect x="236" y="184" width="8" height="8" />
          <rect x="244" y="184" width="8" height="8" />
          <rect x="260" y="184" width="8" height="8" />
          <rect x="268" y="184" width="8" height="8" />
          <rect x="276" y="184" width="8" height="8" />
          <rect x="292" y="184" width="8" height="8" />
          <rect x="300" y="184" width="8" height="8" />
          <rect x="308" y="184" width="8" height="8" />
          <rect x="316" y="184" width="8" height="8" />
          <rect x="124" y="192" width="8" height="8" />
          <rect x="132" y="192" width="8" height="8" />
          <rect x="148" y="192" width="8" height="8" />
          <rect x="156" y="192" width="8" height="8" />
          <rect x="164" y="192" width="8" height="8" />
          <rect x="188" y="192" width="8" height="8" />
          <rect x="196" y="192" width="8" height="8" />
          <rect x="204" y="192" width="8" height="8" />
          <rect x="220" y="192" width="8" height="8" />
          <rect x="244" y="192" width="8" height="8" />
          <rect x="284" y="192" width="8" height="8" />
          <rect x="308" y="192" width="8" height="8" />
          <rect x="172" y="200" width="8" height="8" />
          <rect x="188" y="200" width="8" height="8" />
          <rect x="196" y="200" width="8" height="8" />
          <rect x="212" y="200" width="8" height="8" />
          <rect x="220" y="200" width="8" height="8" />
          <rect x="228" y="200" width="8" height="8" />
          <rect x="236" y="200" width="8" height="8" />
          <rect x="244" y="200" width="8" height="8" />
          <rect x="268" y="200" width="8" height="8" />
          <rect x="276" y="200" width="8" height="8" />
          <rect x="284" y="200" width="8" height="8" />
          <rect x="292" y="200" width="8" height="8" />
          <rect x="300" y="200" width="8" height="8" />
          <rect x="148" y="208" width="8" height="8" />
          <rect x="156" y="208" width="8" height="8" />
          <rect x="180" y="208" width="8" height="8" />
          <rect x="212" y="208" width="8" height="8" />
          <rect x="228" y="208" width="8" height="8" />
          <rect x="244" y="208" width="8" height="8" />
          <rect x="268" y="208" width="8" height="8" />
          <rect x="276" y="208" width="8" height="8" />
          <rect x="284" y="208" width="8" height="8" />
          <rect x="300" y="208" width="8" height="8" />
          <rect x="308" y="208" width="8" height="8" />
          <rect x="124" y="216" width="8" height="8" />
          <rect x="132" y="216" width="8" height="8" />
          <rect x="148" y="216" width="8" height="8" />
          <rect x="156" y="216" width="8" height="8" />
          <rect x="164" y="216" width="8" height="8" />
          <rect x="172" y="216" width="8" height="8" />
          <rect x="180" y="216" width="8" height="8" />
          <rect x="204" y="216" width="8" height="8" />
          <rect x="220" y="216" width="8" height="8" />
          <rect x="228" y="216" width="8" height="8" />
          <rect x="252" y="216" width="8" height="8" />
          <rect x="260" y="216" width="8" height="8" />
          <rect x="268" y="216" width="8" height="8" />
          <rect x="276" y="216" width="8" height="8" />
          <rect x="284" y="216" width="8" height="8" />
          <rect x="292" y="216" width="8" height="8" />
          <rect x="300" y="216" width="8" height="8" />
          <rect x="188" y="224" width="8" height="8" />
          <rect x="204" y="224" width="8" height="8" />
          <rect x="228" y="224" width="8" height="8" />
          <rect x="236" y="224" width="8" height="8" />
          <rect x="252" y="224" width="8" height="8" />
          <rect x="284" y="224" width="8" height="8" />
          <rect x="124" y="232" width="8" height="8" />
          <rect x="132" y="232" width="8" height="8" />
          <rect x="140" y="232" width="8" height="8" />
          <rect x="148" y="232" width="8" height="8" />
          <rect x="156" y="232" width="8" height="8" />
          <rect x="164" y="232" width="8" height="8" />
          <rect x="172" y="232" width="8" height="8" />
          <rect x="188" y="232" width="8" height="8" />
          <rect x="204" y="232" width="8" height="8" />
          <rect x="252" y="232" width="8" height="8" />
          <rect x="268" y="232" width="8" height="8" />
          <rect x="284" y="232" width="8" height="8" />
          <rect x="124" y="240" width="8" height="8" />
          <rect x="172" y="240" width="8" height="8" />
          <rect x="204" y="240" width="8" height="8" />
          <rect x="220" y="240" width="8" height="8" />
          <rect x="236" y="240" width="8" height="8" />
          <rect x="252" y="240" width="8" height="8" />
          <rect x="284" y="240" width="8" height="8" />
          <rect x="292" y="240" width="8" height="8" />
          <rect x="300" y="240" width="8" height="8" />
          <rect x="308" y="240" width="8" height="8" />
          <rect x="316" y="240" width="8" height="8" />
          <rect x="124" y="248" width="8" height="8" />
          <rect x="140" y="248" width="8" height="8" />
          <rect x="148" y="248" width="8" height="8" />
          <rect x="156" y="248" width="8" height="8" />
          <rect x="172" y="248" width="8" height="8" />
          <rect x="188" y="248" width="8" height="8" />
          <rect x="196" y="248" width="8" height="8" />
          <rect x="212" y="248" width="8" height="8" />
          <rect x="228" y="248" width="8" height="8" />
          <rect x="236" y="248" width="8" height="8" />
          <rect x="252" y="248" width="8" height="8" />
          <rect x="260" y="248" width="8" height="8" />
          <rect x="268" y="248" width="8" height="8" />
          <rect x="276" y="248" width="8" height="8" />
          <rect x="284" y="248" width="8" height="8" />
          <rect x="292" y="248" width="8" height="8" />
          <rect x="300" y="248" width="8" height="8" />
          <rect x="316" y="248" width="8" height="8" />
          <rect x="124" y="256" width="8" height="8" />
          <rect x="140" y="256" width="8" height="8" />
          <rect x="148" y="256" width="8" height="8" />
          <rect x="156" y="256" width="8" height="8" />
          <rect x="172" y="256" width="8" height="8" />
          <rect x="196" y="256" width="8" height="8" />
          <rect x="204" y="256" width="8" height="8" />
          <rect x="220" y="256" width="8" height="8" />
          <rect x="260" y="256" width="8" height="8" />
          <rect x="268" y="256" width="8" height="8" />
          <rect x="276" y="256" width="8" height="8" />
          <rect x="300" y="256" width="8" height="8" />
          <rect x="308" y="256" width="8" height="8" />
          <rect x="316" y="256" width="8" height="8" />
          <rect x="124" y="264" width="8" height="8" />
          <rect x="140" y="264" width="8" height="8" />
          <rect x="148" y="264" width="8" height="8" />
          <rect x="156" y="264" width="8" height="8" />
          <rect x="172" y="264" width="8" height="8" />
          <rect x="196" y="264" width="8" height="8" />
          <rect x="204" y="264" width="8" height="8" />
          <rect x="212" y="264" width="8" height="8" />
          <rect x="220" y="264" width="8" height="8" />
          <rect x="228" y="264" width="8" height="8" />
          <rect x="236" y="264" width="8" height="8" />
          <rect x="260" y="264" width="8" height="8" />
          <rect x="268" y="264" width="8" height="8" />
          <rect x="292" y="264" width="8" height="8" />
          <rect x="308" y="264" width="8" height="8" />
          <rect x="124" y="272" width="8" height="8" />
          <rect x="172" y="272" width="8" height="8" />
          <rect x="204" y="272" width="8" height="8" />
          <rect x="212" y="272" width="8" height="8" />
          <rect x="228" y="272" width="8" height="8" />
          <rect x="244" y="272" width="8" height="8" />
          <rect x="276" y="272" width="8" height="8" />
          <rect x="284" y="272" width="8" height="8" />
          <rect x="292" y="272" width="8" height="8" />
          <rect x="300" y="272" width="8" height="8" />
          <rect x="308" y="272" width="8" height="8" />
          <rect x="124" y="280" width="8" height="8" />
          <rect x="132" y="280" width="8" height="8" />
          <rect x="140" y="280" width="8" height="8" />
          <rect x="148" y="280" width="8" height="8" />
          <rect x="156" y="280" width="8" height="8" />
          <rect x="164" y="280" width="8" height="8" />
          <rect x="172" y="280" width="8" height="8" />
          <rect x="188" y="280" width="8" height="8" />
          <rect x="204" y="280" width="8" height="8" />
          <rect x="220" y="280" width="8" height="8" />
          <rect x="228" y="280" width="8" height="8" />
          <rect x="244" y="280" width="8" height="8" />
          <rect x="260" y="280" width="8" height="8" />
          <rect x="300" y="280" width="8" height="8" />
          <rect x="308" y="280" width="8" height="8" />
          <rect x="316" y="280" width="8" height="8" />
        </g>
        <title>Open https://google.com</title>
      </g>
    </a>
  </g>
</svg>
